<svg width="36" height="37" viewBox="0 0 36 37" fill="none" xmlns="http://www.w3.org/2000/svg"><circle cx="18.056" cy="18.492" r="15" transform="rotate(-12.199 18.056 18.492)" fill="#403D3A"/><path d="M23.366 15.713c-.11-1.7-1.555-2.314-3.396-2.534l.073-2.35-1.43-.045-.072 2.289a47.76 47.76 0 0 0-1.143-.02l.073-2.305-1.43-.045-.075 2.35c-.31-.004-.614-.007-.91-.017v-.007l-1.974-.062-.048 1.528s1.057.013 1.04.031c.579.019.756.361.802.654l-.083 2.678c.04 0 .091.004.15.014l-.15-.005-.119 3.752c-.031.181-.147.468-.553.457.018.016-1.04-.033-1.04-.033l-.338 1.7 1.863.058c.346.011.687.028 1.02.04l-.073 2.378 1.43.044.073-2.35c.392.019.772.034 1.143.046l-.074 2.34 1.43.045.075-2.372c2.41-.063 4.112-.616 4.393-2.868.226-1.813-.604-2.652-1.96-3.023.844-.396 1.385-1.124 1.303-2.368Zm-2.162 5.02c-.054 1.777-3.09 1.48-4.06 1.45l.1-3.15c.97.03 4.019-.152 3.96 1.7Zm-.526-4.465c-.05 1.617-2.582 1.348-3.389 1.323l.09-2.856c.807.025 3.353-.153 3.3 1.534Z" fill="#DB953C"/></svg>