<svg width="141" height="12" viewBox="0 0 141 12" fill="none" xmlns="http://www.w3.org/2000/svg"><path d="M4.688 11.497A6.681 6.681 0 0 1 .455 8.131a4.035 4.035 0 0 1-.427-2.329 3.955 3.955 0 0 1 .427-2.315 6.7 6.7 0 0 1 2.786-2.7c1.431-.67 2.482-.79 7.187-.746 3.29.031 4.37.091 4.37.228a8.576 8.576 0 0 1-1.066 1.568l-1.05 1.371h-3.06c-3.639 0-4.324.137-5.147 1.051a2.421 2.421 0 0 0 .7 3.853c.61.335.837.35 5.131.426 3.365.061 4.492.121 4.492.26a8.635 8.635 0 0 1-1.066 1.567l-1.05 1.37-3.595-.015c-1.47.08-2.944.004-4.399-.223Zm17.45.136a9.513 9.513 0 0 1-.106-1.934V7.841l-3.35-3.715a49.318 49.318 0 0 1-3.35-3.914c0-.152.487-.2 2.27-.2h2.268l2.087 2.284 2.07 2.284 1.934-2.284L27.895.012h2.238c.78-.038 1.56.008 2.33.137a40.412 40.412 0 0 1-3.2 3.883l-3.273 3.73v1.751a14.23 14.23 0 0 1-.09 1.98c-.077.2-.4.243-1.874.243a9.087 9.087 0 0 1-1.888-.103Zm10.339-.136a42.958 42.958 0 0 1 0-5.6c.076-.213.685-.244 5.223-.244 4.827 0 5.146-.015 5.62-.3a.767.767 0 0 0 .486-.776 1.079 1.079 0 0 0-.777-1.188 42.922 42.922 0 0 0-5.48-.167c-1.672.09-3.348.038-5.01-.152a9.837 9.837 0 0 1 1.172-1.614L34.868.01 39.3.055c4.188.045 4.477.076 5.3.4 2.3.93 3.5 2.862 3.015 4.888a4.129 4.129 0 0 1-1.858 2.512c-1.31.868-2.147 1.005-6.014 1.005h-3.38l-.046 1.416-.046 1.4-1.842.045c-1.586.02-1.878-.012-1.95-.224Zm15.973.045c-.046-.09-.06-2.725-.046-5.816L48.45.092h3.655l.076 2.056.076 2.056 3.152.046 3.152.031.045-2.087.045-2.1h3.66v11.573l-1.859.045-1.873.046V7.48h-6.4v4.263h-1.827c-1.342-.002-1.856-.047-1.902-.2Zm14.923 0c-.046-.09-.06-2.725-.046-5.816l.046-5.634L69.45.047c3.624-.015 6.152.031 6.227.107.092.091-.274.685-.959 1.57l-1.1 1.415-3.213.076-3.228.076v.914l4 .046c2.787.031 3.99.091 3.99.2a10.13 10.13 0 0 1-1.08 1.6l-1.1 1.431h-5.894v1.066h4.248a27.907 27.907 0 0 1 4.355.152 6.222 6.222 0 0 1-1.02 1.6l-1.11 1.447h-5.07c-3.905-.007-5.077-.053-5.122-.205Zm12.622 0c-.03-.107-.046-1.462-.03-3l.045-2.817 5.512-.076c5.3-.076 5.527-.092 5.938-.4a.982.982 0 0 0 0-1.645c-.41-.3-.608-.32-5.908-.365-4.644-.046-5.48-.076-5.436-.259.326-.563.698-1.099 1.112-1.6L78.28.01h4.2c4.537 0 5.62.136 6.943.806a4.534 4.534 0 0 1 2.055 2.01 4.91 4.91 0 0 1 .076 3.03 5.347 5.347 0 0 1-1.8 2.01c-.228.121-.426.29-.426.365a16.453 16.453 0 0 0 1.827 1.675c.657.51 1.27 1.075 1.828 1.69-.865.143-1.744.189-2.62.137h-2.628l-1.7-1.447-1.706-1.462-2.253.046-2.254.046-.046 1.416-.045 1.4h-1.828c-1.343.008-1.846-.037-1.907-.19Zm22.52-.03a6.97 6.97 0 0 1-3.258-1.918 4.827 4.827 0 0 1-1.538-3.792 5.014 5.014 0 0 1 2.345-4.46C97.571.305 98.317.122 101.698.046c3.442-.076 4.629.076 6 .73a5.447 5.447 0 0 1 3.259 4.081c.579 2.954-1.461 5.772-4.827 6.654a31.82 31.82 0 0 1-7.615 0ZM105.2 8.39a3.12 3.12 0 0 0 1.721-1.386c.153-.372.23-.77.229-1.172a2.345 2.345 0 0 0-1.371-2.162c-.654-.366-.792-.38-3.425-.38-2.71 0-2.757 0-3.442.41a2.331 2.331 0 0 0-1.325 1.888 2.491 2.491 0 0 0 1.72 2.711c1.952.29 3.934.321 5.893.091Zm10.793 3.107a6.68 6.68 0 0 1-4.233-3.366 4.05 4.05 0 0 1-.427-2.329 3.963 3.963 0 0 1 .427-2.315 6.703 6.703 0 0 1 2.786-2.7c1.508-.715 2.345-.776 9.076-.746l6.289.045.045 1.781c-.009.602.027 1.204.107 1.8.045 0 1.187-.823 2.573-1.828l2.5-1.827h2.6c1.98 0 2.6.046 2.6.2a45.64 45.64 0 0 1-3.731 2.91c-2.056 1.492-3.761 2.755-3.792 2.816-.031.061 1.66 1.295 3.761 2.756 2.1 1.477 3.837 2.756 3.882 2.862.046.137-.578.183-2.664.183h-2.699l-2.467-1.75c-1.355-.96-2.5-1.752-2.543-1.752a8.628 8.628 0 0 0-.122 1.721l-.046 1.705-1.812.045c-1.355.031-1.842-.015-1.949-.152a5.08 5.08 0 0 1-.121-1.324V9.09l-1.02 1.324-1.035 1.325-3.579-.015a21.193 21.193 0 0 1-4.406-.226Zm10.035-6.944V.564l-1.02 1.324-1.035 1.325h-3.061c-3.472 0-4.2.137-5.04.944-.297.31-.525.678-.67 1.082a2.572 2.572 0 0 0 .853 2.634c.914.594 1.4.654 5.756.67h4.218v-3.99h-.001Z" fill="#161C23"/></svg>