<svg width="141" height="12" viewBox="0 0 141 12" fill="none" xmlns="http://www.w3.org/2000/svg">
<path d="M4.68838 11.4972C3.78716 11.2622 2.94506 10.8413 2.21609 10.2617C1.48711 9.682 0.887327 8.95632 0.455344 8.1312C0.0833043 7.41504 -0.0654365 6.60376 0.0283425 5.80219C-0.0675983 5.00507 0.0813357 4.19764 0.455344 3.4872C1.09741 2.33214 2.06673 1.39274 3.24136 0.787192C4.67236 0.117192 5.72337 -0.00379515 10.4284 0.0412049C13.7174 0.0722048 14.7984 0.132202 14.7984 0.269202C14.5021 0.829667 14.1446 1.35554 13.7324 1.83719L12.6824 3.2082H9.6224C5.9834 3.2082 5.29836 3.34519 4.47536 4.25919C4.21163 4.53538 4.01699 4.87005 3.90731 5.23585C3.79763 5.60164 3.776 5.98821 3.84426 6.36394C3.91252 6.73968 4.06873 7.09393 4.30007 7.39777C4.53141 7.70161 4.83134 7.94643 5.17538 8.1122C5.78438 8.4472 6.01236 8.4622 10.3064 8.5382C13.6714 8.5992 14.7984 8.6592 14.7984 8.7972C14.5017 9.35742 14.1442 9.88325 13.7324 10.3652L12.6814 11.7352L9.08736 11.7202C7.61726 11.7991 6.14297 11.7243 4.68838 11.4972V11.4972Z" fill="white"/>
<path d="M22.1384 11.6332C22.0373 10.9938 22.0018 10.3458 22.0323 9.69918V7.84119L18.6824 4.12618C17.4983 2.88076 16.3801 1.57431 15.3324 0.212181C15.3324 0.0601809 15.8194 0.0121839 17.6014 0.0121839H19.8704L21.9574 2.29618L24.0274 4.58019L25.9614 2.29618L27.8954 0.0121839H30.1334C30.9127 -0.0262891 31.6939 0.0196534 32.4634 0.149193C31.4784 1.50875 30.4097 2.80559 29.2634 4.03219L25.9904 7.76218V9.51319C26.0063 10.1745 25.9759 10.8361 25.8994 11.4932C25.8234 11.6932 25.4994 11.7362 24.0264 11.7362C23.3952 11.7676 22.7624 11.7331 22.1384 11.6332V11.6332Z" fill="white"/>
<path d="M32.4774 11.4972C32.3556 9.63251 32.3556 7.76187 32.4774 5.89719C32.5534 5.68419 33.1623 5.65318 37.7003 5.65318C42.5273 5.65318 42.8463 5.63818 43.3193 5.35318C43.4732 5.29345 43.6037 5.18568 43.6914 5.04588C43.7791 4.90608 43.8195 4.74172 43.8063 4.57719C43.8424 4.31869 43.7836 4.05586 43.6407 3.83742C43.4978 3.61898 43.2807 3.45974 43.0294 3.38919C41.2078 3.21675 39.377 3.16096 37.5483 3.22218C35.877 3.31128 34.2012 3.26045 32.5383 3.07019C32.8736 2.49381 33.2667 1.95303 33.7114 1.45619L34.8683 0.00918579L39.2993 0.055191C43.4873 0.100191 43.7764 0.131185 44.5994 0.455185C46.8994 1.38418 48.0993 3.31719 47.6143 5.34319C47.3479 6.39157 46.6808 7.29356 45.7563 7.85519C44.4463 8.72319 43.6094 8.86018 39.7424 8.86018H36.3624L36.3163 10.2762L36.2703 11.6762L34.4283 11.7212C32.8423 11.7402 32.5504 11.7092 32.4774 11.4972Z" fill="white"/>
<path d="M48.4503 11.5422C48.4043 11.4512 48.3894 8.8172 48.4044 5.7262L48.4503 0.0921936H52.1053L52.1813 2.14819L52.2573 4.20419L55.4094 4.2502L58.5613 4.28119L58.6063 2.1942L58.6514 0.0941925H62.3104V11.6672L60.4523 11.7122L58.5793 11.7582V7.47919H52.1793V11.7422H50.3524C49.0104 11.7402 48.4963 11.6952 48.4503 11.5422Z" fill="white"/>
<path d="M63.3733 11.5422C63.3273 11.4512 63.3123 8.8172 63.3273 5.7262L63.3733 0.0921979L69.4493 0.0471997C73.0733 0.0321997 75.6013 0.0781943 75.6763 0.154194C75.7683 0.245194 75.4023 0.839195 74.7173 1.72319L73.6173 3.13919L70.4043 3.2152L67.1763 3.29119V4.20519L71.1763 4.25119C73.9633 4.28219 75.1663 4.34219 75.1663 4.45119C74.8577 5.01773 74.4958 5.5535 74.0853 6.0512L72.9853 7.4822H67.0923V8.54819H71.3403C72.7937 8.48527 74.2498 8.5361 75.6953 8.7002C75.4391 9.28254 75.0951 9.82214 74.6753 10.3002L73.5643 11.7472H68.4943C64.5903 11.7402 63.4183 11.6942 63.3733 11.5422Z" fill="white"/>
<path d="M75.9953 11.5422C75.9653 11.4352 75.9494 10.0802 75.9654 8.54218L76.0103 5.72517L81.5224 5.64919C86.8224 5.57319 87.0494 5.55718 87.4604 5.24918C87.5972 5.15994 87.7095 5.038 87.7873 4.89438C87.8651 4.75076 87.9059 4.59001 87.9059 4.42668C87.9059 4.26335 87.8651 4.10259 87.7873 3.95897C87.7095 3.81535 87.5972 3.69342 87.4604 3.60419C87.0494 3.30419 86.8523 3.28418 81.5523 3.23918C76.9083 3.19318 76.0714 3.16318 76.1164 2.98018C76.4417 2.4167 76.8136 1.8815 77.2284 1.38019L78.2793 0.00918579H82.4793C87.0163 0.00918579 88.0983 0.146177 89.4223 0.816177C90.3072 1.24555 91.0285 1.95103 91.4773 2.82619C91.8214 3.80292 91.8481 4.86343 91.5534 5.85619C91.1351 6.66904 90.5153 7.36107 89.7533 7.86618C89.5253 7.98718 89.3274 8.15519 89.3274 8.23119C89.8934 8.83467 90.5041 9.39458 91.1543 9.90617C91.8114 10.4155 92.4231 10.981 92.9823 11.5962C92.1168 11.7387 91.2381 11.7847 90.3623 11.7332H87.7343L86.0343 10.2862L84.3283 8.82417L82.0754 8.87018L79.8213 8.91618L79.7754 10.3322L79.7304 11.7322H77.9024C76.5594 11.7402 76.0563 11.6952 75.9953 11.5422Z" fill="white"/>
<path d="M98.5154 11.5122C97.2734 11.1852 96.1459 10.5214 95.2574 9.59417C94.7389 9.11334 94.3324 8.52447 94.0666 7.86921C93.8009 7.21395 93.6823 6.50831 93.7193 5.80218C93.6816 4.91778 93.8787 4.03917 94.2906 3.25564C94.7025 2.4721 95.3145 1.81157 96.0644 1.34118C97.5714 0.306179 98.3173 0.123173 101.698 0.0471729C105.14 -0.0288271 106.327 0.123169 107.698 0.777169C108.54 1.13051 109.279 1.68925 109.848 2.40223C110.417 3.1152 110.799 3.95963 110.957 4.85818C111.536 7.81218 109.496 10.6302 106.13 11.5122C103.601 11.817 101.045 11.817 98.5154 11.5122V11.5122ZM105.2 8.39017C105.924 8.15318 106.536 7.66035 106.921 7.00417C107.074 6.63222 107.151 6.23405 107.15 5.83218C107.156 5.37768 107.029 4.93133 106.786 4.54748C106.543 4.16362 106.193 3.85881 105.779 3.67017C105.125 3.30417 104.987 3.28918 102.354 3.28918C99.6433 3.28918 99.5973 3.28917 98.9123 3.70017C98.5467 3.8729 98.2323 4.13779 98 4.4688C97.7677 4.79982 97.6254 5.18558 97.5873 5.58817C97.5083 6.17032 97.6376 6.76167 97.9523 7.25774C98.267 7.75381 98.747 8.12267 99.3073 8.29917C101.259 8.5897 103.241 8.62031 105.2 8.39017V8.39017Z" fill="white"/>
<path d="M115.993 11.4972C115.092 11.2622 114.25 10.8414 113.521 10.2617C112.792 9.68204 112.192 8.95635 111.76 8.1312C111.389 7.41495 111.24 6.60374 111.333 5.80219C111.238 5.00507 111.386 4.19768 111.76 3.48718C112.402 2.33212 113.372 1.39273 114.546 0.787186C116.054 0.0721857 116.891 0.0111835 123.622 0.0411835L129.911 0.0861816L129.956 1.86719C129.947 2.46902 129.983 3.07071 130.063 3.66719C130.108 3.66719 131.25 2.84419 132.636 1.83919L135.136 0.0121918H137.736C139.716 0.0121918 140.336 0.0581887 140.336 0.212189C139.144 1.24555 137.898 2.21651 136.605 3.12119C134.549 4.61419 132.844 5.87719 132.813 5.93819C132.782 5.99919 134.473 7.23318 136.574 8.69418C138.674 10.1712 140.411 11.4502 140.456 11.5562C140.502 11.6932 139.878 11.7392 137.792 11.7392H135.093L132.626 9.98819C131.271 9.02919 130.126 8.23718 130.083 8.23718C129.985 8.80528 129.944 9.38188 129.961 9.95819L129.915 11.6632L128.103 11.7082C126.748 11.7392 126.261 11.6932 126.154 11.5562C126.056 11.1221 126.015 10.6769 126.033 10.2322V9.08919L125.013 10.4132L123.978 11.7382L120.399 11.7232C118.927 11.8014 117.45 11.7256 115.993 11.4972V11.4972ZM126.028 4.55319V0.564194L125.008 1.88818L123.973 3.21318H120.912C117.44 3.21318 116.712 3.35018 115.872 4.15718C115.575 4.46635 115.347 4.83515 115.202 5.23918C115.078 5.71385 115.093 6.21413 115.244 6.68088C115.395 7.14763 115.677 7.56135 116.055 7.87318C116.969 8.46718 117.455 8.52718 121.811 8.54318H126.029V4.55319H126.028Z" fill="white"/>
</svg>
